<svg viewBox="0 0 284 82" fill="none" xmlns="http://www.w3.org/2000/svg" >
    <path fill-rule="evenodd" clip-rule="evenodd"
          d="M30.93 60.12l-10.99-6.55s-1.11 4.37 2.04 6.56l8.61 5.36c.18.11.37.16.55.16.25 0 .47-.11.63-.31.14-.18.22-.42.22-.71v-2.67c-.01-.68-.47-1.5-1.06-1.84zM31.98 52.48c0-.7-.46-1.52-1.05-1.86l-13.8-8.17s-1.19 4.36 1.96 6.55l11.51 6.99c.18.11.37.16.55.16.25 0 .47-.11.63-.31.14-.18.22-.42.22-.71v-2.65h-.02z"
          ></path>
    <path fill-rule="evenodd" clip-rule="evenodd"
          d="M65.17 19.35c-.64 0-1.3.18-1.96.53l-.02.01-27.24 16.79c-1.26.78-2.37.35-2.81.12l-.2-.12-21.83-13.15-.11-.07c-.31-.2-1.07-.84.12-1.55L33.25 8.57c.01-.01 1.23-.8 2.93.2l8.77 5.12c.13.08.35.2.39.23l.22.13.02.01c.13.07.27.14.4.2 1.13.57 2.86 1.3 4.74 1.55 2.44.33 4.44-.21 5.95-1.62l.84-.78-10.17-5.86-6.37-3.7-.63-.36-4.05-2.36c-.86-.5-2.17-.6-3.2-.25-.25.09-.44.18-.62.28l-16.15 9.8.01.01-13.59 8.19-.03.02C1.44 20.21.72 21.36.7 22.6c-.03 1.18.59 2.28 1.74 3.11l.03.02 30.06 18.24c1.07.65 2.75.64 3.82-.01L61 28.89l.18-.11c.34-.18 1.03-.41 1.03.75v26.09c0 1.39-.42 2.02-.74 2.31l-.38.23-25.17 15.17c-1.34.81-2.48.32-2.87.1l-.16-.1L7.82 58.22c-.91-.55-1.18-1.36-1.25-1.94v-.67l-.02-8.6c.01-.28.1-2.27-.41-4.46-.75-3.22-2.43-5.29-4.86-5.99L.2 36.25V59.41l.01.06c.18 1.15.92 2.3 1.84 2.85l30.42 18.32c.53.32 1.2.49 1.9.49s1.38-.18 1.91-.5L66.7 62.25c1.07-.65 1.87-2.1 1.87-3.37l.01-35.94c0-.88-.32-1.77-.88-2.43a3.275 3.275 0 00-2.53-1.16zM116.57 40.66c-2.1-1.77-5.16-2.83-9.38-3.24l-5.53-.54c-3.56-.34-5.02-1.46-5.02-3.87 0-3.13 2.33-4.72 6.92-4.72 3.61 0 6.9.99 9.26 2.79l.28.21 5.36-5.42-.3-.28c-3.15-2.92-8.33-4.6-14.21-4.6-4.66 0-8.57 1.09-11.29 3.16-2.86 2.17-4.37 5.4-4.37 9.32 0 6.47 4.11 10.25 11.89 10.93l6.31.54c3.27.3 4.86 1.64 4.86 4.1 0 2.29-1.44 5.03-8.33 5.03-1.24 0-2.43-.1-3.52-.29-.24-.04-.48-.09-.71-.14-.12-.03-.24-.05-.35-.08-.24-.06-.47-.12-.7-.19-.47-.14-.94-.3-1.38-.48-.58-.24-1.13-.51-1.65-.82-.11-.06-.21-.13-.32-.2-.72-.46-2.08-1.71-2.09-1.72l-.27-.25-5.85 5.57.28.29c3.77 3.89 8.98 5.78 15.94 5.78 5.42 0 9.7-1.08 12.7-3.21 3.15-2.24 4.75-5.51 4.75-9.74.01-3.42-1.1-6.08-3.28-7.93zM234.88 26.33v-4.87h-8.5V61h8.58V42.57c0-3.89 1.26-7.18 3.66-9.51 2.21-2.16 5.28-3.35 8.64-3.35h.4v-7.92h-.4c-4.53 0-8.99 1.64-12.38 4.54zM171.32 47.27c0 3.4-3.01 5.96-7 5.96-4.04 0-7.08-2.56-7.08-5.96V21.46h-8.5v25.5c0 4.05 1.58 7.75 4.45 10.43 2.86 2.67 6.82 4.15 11.13 4.15 4.32 0 8.29-1.47 11.17-4.14 2.89-2.68 4.49-6.39 4.49-10.43v-25.5h-8.66v25.8zM202.33 21c-6.71 0-10.92 1.7-14.55 5.87l-.25.29 5.72 5.34.27-.31c.67-.78 1.33-1.39 2.01-1.89a8.428 8.428 0 012.2-1.15c1.22-.42 2.63-.62 4.45-.62 2.95 0 4.88.51 6.06 1.62 1.12 1.05 1.65 2.72 1.65 5.27v1.54h-9.81c-4.73 0-8.63 1.21-11.3 3.51-2.5 2.15-3.82 5.12-3.82 8.59 0 3.76 1.42 6.96 4.11 9.25 2.45 2.08 5.78 3.23 9.37 3.23 1.6 0 3-.11 4.27-.33.28-.05.57-.11.84-.17 1.38-.31 2.59-.77 3.72-1.41.22-.13.45-.26.66-.4.43-.28.85-.59 1.25-.92.47-.39.93-.83 1.38-1.3.27.57.63 1.16 1.16 1.71 1.43 1.49 3.57 2.25 6.35 2.25h.4V34.45h-.01c-.15-9.04-5.42-13.45-16.13-13.45zm7.54 22.95v1.23c0 3.27-1.66 5.28-3.04 6.39-1.75 1.4-4.1 2.2-6.45 2.2-2.06 0-3.79-.38-5-1.09-1.38-.81-2.08-2.06-2.08-3.71 0-1.61.65-2.85 1.92-3.69 1.35-.89 3.4-1.34 6.09-1.34l8.56.01zm.48 12.7l.06.03c.01.01.01.03.02.04l-.08-.07zM260.96 49.01V29.5h8.33v-7.76h-7.82c-.3 0-.39-.06-.41-.08-.11-.11-.11-.57-.1-1.06v-.33-1.3c0-3.38-.91-5.9-2.7-7.51-2.37-2.13-5.4-1.84-5.53-1.82l-.35.04v40.74c0 5.52 3.42 11.09 11.06 11.09h6.63v-8.47h-5.22c-2.54-.01-3.89-1.4-3.89-4.03zM132.86 48.87V29.36h8.33V21.6h-7.82c-.3 0-.39-.06-.41-.08-.11-.11-.11-.57-.1-1.06v-.33-1.3c0-3.38-.91-5.9-2.7-7.51-2.37-2.13-5.4-1.84-5.53-1.82l-.35.04v40.74c0 5.52 3.42 11.09 11.06 11.09h6.63V52.9h-5.22c-2.55-.01-3.89-1.4-3.89-4.03z"
          ></path>
    <path d="M278.81 62.28a4.99 4.99 0 100-9.98 4.99 4.99 0 000 9.98z"></path>
</svg>
